<?xml version="1.0" encoding="utf-8" standalone="no"?>
<!DOCTYPE svg PUBLIC "-//W3C//DTD SVG 1.1//EN"
  "http://www.w3.org/Graphics/SVG/1.1/DTD/svg11.dtd">
<svg xmlns:xlink="http://www.w3.org/1999/xlink" width="453.233125pt" height="336.634375pt" viewBox="0 0 453.233125 336.634375" xmlns="http://www.w3.org/2000/svg" version="1.1">
 <metadata>
  <rdf:RDF xmlns:dc="http://purl.org/dc/elements/1.1/" xmlns:cc="http://creativecommons.org/ns#" xmlns:rdf="http://www.w3.org/1999/02/22-rdf-syntax-ns#">
   <cc:Work>
    <dc:type rdf:resource="http://purl.org/dc/dcmitype/StillImage"/>
    <dc:date>2023-09-04T17:09:43.673427</dc:date>
    <dc:format>image/svg+xml</dc:format>
    <dc:creator>
     <cc:Agent>
      <dc:title>Matplotlib v3.7.2, https://matplotlib.org/</dc:title>
     </cc:Agent>
    </dc:creator>
   </cc:Work>
  </rdf:RDF>
 </metadata>
 <defs>
  <style type="text/css">*{stroke-linejoin: round; stroke-linecap: butt}</style>
 </defs>
 <g id="figure_1">
  <g id="patch_1">
   <path d="M 0 336.634375 
L 453.233125 336.634375 
L 453.233125 0 
L 0 0 
z
" style="fill: #ffffff"/>
  </g>
  <g id="axes_1">
   <g id="patch_2">
    <path d="M 40.603125 299.078125 
L 446.033125 299.078125 
L 446.033125 22.318125 
L 40.603125 22.318125 
z
" style="fill: #ffffff"/>
   </g>
   <g id="PolyCollection_1">
    <defs>
     <path id="mae3794e78d" d="M 59.031761 -122.804581 
L 59.031761 -118.118698 
L 66.258678 -119.064032 
L 73.485594 -119.059523 
L 80.71251 -117.847384 
L 87.939426 -119.600002 
L 95.166342 -119.566737 
L 102.393259 -119.756705 
L 109.620175 -116.480968 
L 116.847091 -120.143653 
L 124.074007 -122.477624 
L 131.300924 -122.856948 
L 138.52784 -122.94299 
L 145.754756 -122.864115 
L 152.981672 -122.250446 
L 160.208588 -122.33152 
L 167.435505 -122.349516 
L 174.662421 -122.470243 
L 181.889337 -127.108017 
L 189.116253 -127.531961 
L 196.34317 -127.690167 
L 203.570086 -128.125053 
L 210.797002 -128.353489 
L 218.023918 -128.209287 
L 225.250834 -127.965075 
L 232.477751 -128.00203 
L 239.704667 -207.2154 
L 246.931583 -207.268474 
L 254.158499 -209.589812 
L 261.385416 -209.480076 
L 268.612332 -213.4201 
L 275.839248 -213.762356 
L 283.066164 -213.82418 
L 290.29308 -214.166456 
L 297.519997 -214.199687 
L 304.746913 -214.368805 
L 311.973829 -214.864803 
L 319.200745 -215.177006 
L 326.427662 -214.954516 
L 333.654578 -215.707981 
L 340.881494 -215.784482 
L 348.10841 -216.133164 
L 355.335326 -216.0656 
L 362.562243 -215.90394 
L 369.789159 -216.629178 
L 377.016075 -216.66323 
L 384.242991 -216.706339 
L 391.469908 -217.330982 
L 398.696824 -217.481095 
L 405.92374 -217.781679 
L 413.150656 -217.955773 
L 420.377572 -296.951802 
L 427.604489 -298.571425 
L 427.604489 -304.895522 
L 427.604489 -304.895522 
L 420.377572 -301.55827 
L 413.150656 -221.894787 
L 405.92374 -220.85254 
L 398.696824 -220.648745 
L 391.469908 -220.490498 
L 384.242991 -220.755216 
L 377.016075 -220.061519 
L 369.789159 -219.688275 
L 362.562243 -236.528172 
L 355.335326 -219.804716 
L 348.10841 -219.085101 
L 340.881494 -219.069378 
L 333.654578 -222.938633 
L 326.427662 -219.381583 
L 319.200745 -218.609719 
L 311.973829 -218.322519 
L 304.746913 -218.437748 
L 297.519997 -218.19091 
L 290.29308 -217.450973 
L 283.066164 -217.368762 
L 275.839248 -216.924836 
L 268.612332 -216.394211 
L 261.385416 -215.379315 
L 254.158499 -214.326967 
L 246.931583 -212.040449 
L 239.704667 -210.078162 
L 232.477751 -131.569753 
L 225.250834 -130.98387 
L 218.023918 -130.578907 
L 210.797002 -130.254143 
L 203.570086 -130.570587 
L 196.34317 -130.17763 
L 189.116253 -129.839501 
L 181.889337 -130.531954 
L 174.662421 -124.995598 
L 167.435505 -125.570423 
L 160.208588 -125.312312 
L 152.981672 -125.623086 
L 145.754756 -126.59671 
L 138.52784 -125.440197 
L 131.300924 -125.489459 
L 124.074007 -125.433978 
L 116.847091 -123.254077 
L 109.620175 -126.877633 
L 102.393259 -121.751806 
L 95.166342 -122.17175 
L 87.939426 -122.080668 
L 80.71251 -123.126479 
L 73.485594 -121.16998 
L 66.258678 -121.262256 
L 59.031761 -122.804581 
z
" style="stroke: #1f77b4; stroke-opacity: 0.3"/>
    </defs>
    <g clip-path="url(#pfbe6fcd3a0)">
     <use xlink:href="#mae3794e78d" x="0" y="336.634375" style="fill: #1f77b4; fill-opacity: 0.3; stroke: #1f77b4; stroke-opacity: 0.3"/>
    </g>
   </g>
   <g id="PolyCollection_2">
    <defs>
     <path id="m6fda684390" d="M 59.031761 -120.330693 
L 59.031761 -117.295531 
L 66.258678 -117.956407 
L 73.485594 -118.563599 
L 80.71251 -118.806092 
L 87.939426 -118.762603 
L 95.166342 -118.915994 
L 102.393259 -119.129381 
L 109.620175 -118.764409 
L 116.847091 -119.079744 
L 124.074007 -120.794251 
L 131.300924 -122.324018 
L 138.52784 -122.38706 
L 145.754756 -122.70507 
L 152.981672 -122.867133 
L 160.208588 -122.973084 
L 167.435505 -121.658681 
L 174.662421 -122.279487 
L 181.889337 -130.69992 
L 189.116253 -130.912396 
L 196.34317 -130.625939 
L 203.570086 -131.048135 
L 210.797002 -129.750033 
L 218.023918 -131.620448 
L 225.250834 -131.645187 
L 232.477751 -131.704608 
L 239.704667 -205.875177 
L 246.931583 -206.684865 
L 254.158499 -207.087471 
L 261.385416 -207.253362 
L 268.612332 -207.695008 
L 275.839248 -207.309977 
L 283.066164 -208.10065 
L 290.29308 -208.644786 
L 297.519997 -210.134273 
L 304.746913 -219.849257 
L 311.973829 -220.321802 
L 319.200745 -220.779168 
L 326.427662 -220.851393 
L 333.654578 -221.160642 
L 340.881494 -221.299461 
L 348.10841 -221.750169 
L 355.335326 -221.774556 
L 362.562243 -222.138754 
L 369.789159 -221.926503 
L 377.016075 -222.360508 
L 384.242991 -222.842612 
L 391.469908 -223.165908 
L 398.696824 -222.309639 
L 405.92374 -223.232738 
L 413.150656 -223.771557 
L 420.377572 -297.151085 
L 427.604489 -299.399867 
L 427.604489 -300.411379 
L 427.604489 -300.411379 
L 420.377572 -299.094099 
L 413.150656 -224.733093 
L 405.92374 -224.171272 
L 398.696824 -225.390053 
L 391.469908 -223.949152 
L 384.242991 -223.775251 
L 377.016075 -223.287298 
L 369.789159 -223.35406 
L 362.562243 -223.088487 
L 355.335326 -222.694926 
L 348.10841 -222.723169 
L 340.881494 -222.462006 
L 333.654578 -222.090706 
L 326.427662 -221.781166 
L 319.200745 -221.683069 
L 311.973829 -221.089622 
L 304.746913 -220.90115 
L 297.519997 -213.554465 
L 290.29308 -209.461838 
L 283.066164 -209.061011 
L 275.839248 -209.462556 
L 268.612332 -208.41893 
L 261.385416 -207.943245 
L 254.158499 -207.926034 
L 246.931583 -207.495011 
L 239.704667 -206.732402 
L 232.477751 -132.402976 
L 225.250834 -132.265607 
L 218.023918 -132.380265 
L 210.797002 -134.692519 
L 203.570086 -131.757699 
L 196.34317 -131.753129 
L 189.116253 -131.475696 
L 181.889337 -131.287327 
L 174.662421 -122.901779 
L 167.435505 -123.277008 
L 160.208588 -123.596374 
L 152.981672 -123.257999 
L 145.754756 -123.23797 
L 138.52784 -123.847978 
L 131.300924 -122.926458 
L 124.074007 -123.623499 
L 116.847091 -120.266168 
L 109.620175 -120.804714 
L 102.393259 -120.170082 
L 95.166342 -120.28638 
L 87.939426 -120.075293 
L 80.71251 -119.945926 
L 73.485594 -120.385014 
L 66.258678 -119.758375 
L 59.031761 -120.330693 
z
" style="stroke: #ff7f0e; stroke-opacity: 0.3"/>
    </defs>
    <g clip-path="url(#pfbe6fcd3a0)">
     <use xlink:href="#m6fda684390" x="0" y="336.634375" style="fill: #ff7f0e; fill-opacity: 0.3; stroke: #ff7f0e; stroke-opacity: 0.3"/>
    </g>
   </g>
   <g id="matplotlib.axis_1">
    <g id="xtick_1">
     <g id="line2d_1">
      <defs>
       <path id="m00943757b0" d="M 0 0 
L 0 3.5 
" style="stroke: #000000; stroke-width: 0.8"/>
      </defs>
      <g>
       <use xlink:href="#m00943757b0" x="57.586378" y="299.078125" style="stroke: #000000; stroke-width: 0.8"/>
      </g>
     </g>
     <g id="text_1">
      <!-- 0 -->
      <g transform="translate(54.405128 313.676562) scale(0.1 -0.1)">
       <defs>
        <path id="DejaVuSans-30" d="M 2034 4250 
Q 1547 4250 1301 3770 
Q 1056 3291 1056 2328 
Q 1056 1369 1301 889 
Q 1547 409 2034 409 
Q 2525 409 2770 889 
Q 3016 1369 3016 2328 
Q 3016 3291 2770 3770 
Q 2525 4250 2034 4250 
z
M 2034 4750 
Q 2819 4750 3233 4129 
Q 3647 3509 3647 2328 
Q 3647 1150 3233 529 
Q 2819 -91 2034 -91 
Q 1250 -91 836 529 
Q 422 1150 422 2328 
Q 422 3509 836 4129 
Q 1250 4750 2034 4750 
z
" transform="scale(0.015625)"/>
       </defs>
       <use xlink:href="#DejaVuSans-30"/>
      </g>
     </g>
    </g>
    <g id="xtick_2">
     <g id="line2d_2">
      <g>
       <use xlink:href="#m00943757b0" x="129.85554" y="299.078125" style="stroke: #000000; stroke-width: 0.8"/>
      </g>
     </g>
     <g id="text_2">
      <!-- 100 -->
      <g transform="translate(120.31179 313.676562) scale(0.1 -0.1)">
       <defs>
        <path id="DejaVuSans-31" d="M 794 531 
L 1825 531 
L 1825 4091 
L 703 3866 
L 703 4441 
L 1819 4666 
L 2450 4666 
L 2450 531 
L 3481 531 
L 3481 0 
L 794 0 
L 794 531 
z
" transform="scale(0.015625)"/>
       </defs>
       <use xlink:href="#DejaVuSans-31"/>
       <use xlink:href="#DejaVuSans-30" x="63.623047"/>
       <use xlink:href="#DejaVuSans-30" x="127.246094"/>
      </g>
     </g>
    </g>
    <g id="xtick_3">
     <g id="line2d_3">
      <g>
       <use xlink:href="#m00943757b0" x="202.124703" y="299.078125" style="stroke: #000000; stroke-width: 0.8"/>
      </g>
     </g>
     <g id="text_3">
      <!-- 200 -->
      <g transform="translate(192.580953 313.676562) scale(0.1 -0.1)">
       <defs>
        <path id="DejaVuSans-32" d="M 1228 531 
L 3431 531 
L 3431 0 
L 469 0 
L 469 531 
Q 828 903 1448 1529 
Q 2069 2156 2228 2338 
Q 2531 2678 2651 2914 
Q 2772 3150 2772 3378 
Q 2772 3750 2511 3984 
Q 2250 4219 1831 4219 
Q 1534 4219 1204 4116 
Q 875 4013 500 3803 
L 500 4441 
Q 881 4594 1212 4672 
Q 1544 4750 1819 4750 
Q 2544 4750 2975 4387 
Q 3406 4025 3406 3419 
Q 3406 3131 3298 2873 
Q 3191 2616 2906 2266 
Q 2828 2175 2409 1742 
Q 1991 1309 1228 531 
z
" transform="scale(0.015625)"/>
       </defs>
       <use xlink:href="#DejaVuSans-32"/>
       <use xlink:href="#DejaVuSans-30" x="63.623047"/>
       <use xlink:href="#DejaVuSans-30" x="127.246094"/>
      </g>
     </g>
    </g>
    <g id="xtick_4">
     <g id="line2d_4">
      <g>
       <use xlink:href="#m00943757b0" x="274.393865" y="299.078125" style="stroke: #000000; stroke-width: 0.8"/>
      </g>
     </g>
     <g id="text_4">
      <!-- 300 -->
      <g transform="translate(264.850115 313.676562) scale(0.1 -0.1)">
       <defs>
        <path id="DejaVuSans-33" d="M 2597 2516 
Q 3050 2419 3304 2112 
Q 3559 1806 3559 1356 
Q 3559 666 3084 287 
Q 2609 -91 1734 -91 
Q 1441 -91 1130 -33 
Q 819 25 488 141 
L 488 750 
Q 750 597 1062 519 
Q 1375 441 1716 441 
Q 2309 441 2620 675 
Q 2931 909 2931 1356 
Q 2931 1769 2642 2001 
Q 2353 2234 1838 2234 
L 1294 2234 
L 1294 2753 
L 1863 2753 
Q 2328 2753 2575 2939 
Q 2822 3125 2822 3475 
Q 2822 3834 2567 4026 
Q 2313 4219 1838 4219 
Q 1578 4219 1281 4162 
Q 984 4106 628 3988 
L 628 4550 
Q 988 4650 1302 4700 
Q 1616 4750 1894 4750 
Q 2613 4750 3031 4423 
Q 3450 4097 3450 3541 
Q 3450 3153 3228 2886 
Q 3006 2619 2597 2516 
z
" transform="scale(0.015625)"/>
       </defs>
       <use xlink:href="#DejaVuSans-33"/>
       <use xlink:href="#DejaVuSans-30" x="63.623047"/>
       <use xlink:href="#DejaVuSans-30" x="127.246094"/>
      </g>
     </g>
    </g>
    <g id="xtick_5">
     <g id="line2d_5">
      <g>
       <use xlink:href="#m00943757b0" x="346.663027" y="299.078125" style="stroke: #000000; stroke-width: 0.8"/>
      </g>
     </g>
     <g id="text_5">
      <!-- 400 -->
      <g transform="translate(337.119277 313.676562) scale(0.1 -0.1)">
       <defs>
        <path id="DejaVuSans-34" d="M 2419 4116 
L 825 1625 
L 2419 1625 
L 2419 4116 
z
M 2253 4666 
L 3047 4666 
L 3047 1625 
L 3713 1625 
L 3713 1100 
L 3047 1100 
L 3047 0 
L 2419 0 
L 2419 1100 
L 313 1100 
L 313 1709 
L 2253 4666 
z
" transform="scale(0.015625)"/>
       </defs>
       <use xlink:href="#DejaVuSans-34"/>
       <use xlink:href="#DejaVuSans-30" x="63.623047"/>
       <use xlink:href="#DejaVuSans-30" x="127.246094"/>
      </g>
     </g>
    </g>
    <g id="xtick_6">
     <g id="line2d_6">
      <g>
       <use xlink:href="#m00943757b0" x="418.932189" y="299.078125" style="stroke: #000000; stroke-width: 0.8"/>
      </g>
     </g>
     <g id="text_6">
      <!-- 500 -->
      <g transform="translate(409.388439 313.676562) scale(0.1 -0.1)">
       <defs>
        <path id="DejaVuSans-35" d="M 691 4666 
L 3169 4666 
L 3169 4134 
L 1269 4134 
L 1269 2991 
Q 1406 3038 1543 3061 
Q 1681 3084 1819 3084 
Q 2600 3084 3056 2656 
Q 3513 2228 3513 1497 
Q 3513 744 3044 326 
Q 2575 -91 1722 -91 
Q 1428 -91 1123 -41 
Q 819 9 494 109 
L 494 744 
Q 775 591 1075 516 
Q 1375 441 1709 441 
Q 2250 441 2565 725 
Q 2881 1009 2881 1497 
Q 2881 1984 2565 2268 
Q 2250 2553 1709 2553 
Q 1456 2553 1204 2497 
Q 953 2441 691 2322 
L 691 4666 
z
" transform="scale(0.015625)"/>
       </defs>
       <use xlink:href="#DejaVuSans-35"/>
       <use xlink:href="#DejaVuSans-30" x="63.623047"/>
       <use xlink:href="#DejaVuSans-30" x="127.246094"/>
      </g>
     </g>
    </g>
    <g id="text_7">
     <!-- Number of blocks/QPs -->
     <g transform="translate(188.210312 327.354687) scale(0.1 -0.1)">
      <defs>
       <path id="DejaVuSans-4e" d="M 628 4666 
L 1478 4666 
L 3547 763 
L 3547 4666 
L 4159 4666 
L 4159 0 
L 3309 0 
L 1241 3903 
L 1241 0 
L 628 0 
L 628 4666 
z
" transform="scale(0.015625)"/>
       <path id="DejaVuSans-75" d="M 544 1381 
L 544 3500 
L 1119 3500 
L 1119 1403 
Q 1119 906 1312 657 
Q 1506 409 1894 409 
Q 2359 409 2629 706 
Q 2900 1003 2900 1516 
L 2900 3500 
L 3475 3500 
L 3475 0 
L 2900 0 
L 2900 538 
Q 2691 219 2414 64 
Q 2138 -91 1772 -91 
Q 1169 -91 856 284 
Q 544 659 544 1381 
z
M 1991 3584 
L 1991 3584 
z
" transform="scale(0.015625)"/>
       <path id="DejaVuSans-6d" d="M 3328 2828 
Q 3544 3216 3844 3400 
Q 4144 3584 4550 3584 
Q 5097 3584 5394 3201 
Q 5691 2819 5691 2113 
L 5691 0 
L 5113 0 
L 5113 2094 
Q 5113 2597 4934 2840 
Q 4756 3084 4391 3084 
Q 3944 3084 3684 2787 
Q 3425 2491 3425 1978 
L 3425 0 
L 2847 0 
L 2847 2094 
Q 2847 2600 2669 2842 
Q 2491 3084 2119 3084 
Q 1678 3084 1418 2786 
Q 1159 2488 1159 1978 
L 1159 0 
L 581 0 
L 581 3500 
L 1159 3500 
L 1159 2956 
Q 1356 3278 1631 3431 
Q 1906 3584 2284 3584 
Q 2666 3584 2933 3390 
Q 3200 3197 3328 2828 
z
" transform="scale(0.015625)"/>
       <path id="DejaVuSans-62" d="M 3116 1747 
Q 3116 2381 2855 2742 
Q 2594 3103 2138 3103 
Q 1681 3103 1420 2742 
Q 1159 2381 1159 1747 
Q 1159 1113 1420 752 
Q 1681 391 2138 391 
Q 2594 391 2855 752 
Q 3116 1113 3116 1747 
z
M 1159 2969 
Q 1341 3281 1617 3432 
Q 1894 3584 2278 3584 
Q 2916 3584 3314 3078 
Q 3713 2572 3713 1747 
Q 3713 922 3314 415 
Q 2916 -91 2278 -91 
Q 1894 -91 1617 61 
Q 1341 213 1159 525 
L 1159 0 
L 581 0 
L 581 4863 
L 1159 4863 
L 1159 2969 
z
" transform="scale(0.015625)"/>
       <path id="DejaVuSans-65" d="M 3597 1894 
L 3597 1613 
L 953 1613 
Q 991 1019 1311 708 
Q 1631 397 2203 397 
Q 2534 397 2845 478 
Q 3156 559 3463 722 
L 3463 178 
Q 3153 47 2828 -22 
Q 2503 -91 2169 -91 
Q 1331 -91 842 396 
Q 353 884 353 1716 
Q 353 2575 817 3079 
Q 1281 3584 2069 3584 
Q 2775 3584 3186 3129 
Q 3597 2675 3597 1894 
z
M 3022 2063 
Q 3016 2534 2758 2815 
Q 2500 3097 2075 3097 
Q 1594 3097 1305 2825 
Q 1016 2553 972 2059 
L 3022 2063 
z
" transform="scale(0.015625)"/>
       <path id="DejaVuSans-72" d="M 2631 2963 
Q 2534 3019 2420 3045 
Q 2306 3072 2169 3072 
Q 1681 3072 1420 2755 
Q 1159 2438 1159 1844 
L 1159 0 
L 581 0 
L 581 3500 
L 1159 3500 
L 1159 2956 
Q 1341 3275 1631 3429 
Q 1922 3584 2338 3584 
Q 2397 3584 2469 3576 
Q 2541 3569 2628 3553 
L 2631 2963 
z
" transform="scale(0.015625)"/>
       <path id="DejaVuSans-20" transform="scale(0.015625)"/>
       <path id="DejaVuSans-6f" d="M 1959 3097 
Q 1497 3097 1228 2736 
Q 959 2375 959 1747 
Q 959 1119 1226 758 
Q 1494 397 1959 397 
Q 2419 397 2687 759 
Q 2956 1122 2956 1747 
Q 2956 2369 2687 2733 
Q 2419 3097 1959 3097 
z
M 1959 3584 
Q 2709 3584 3137 3096 
Q 3566 2609 3566 1747 
Q 3566 888 3137 398 
Q 2709 -91 1959 -91 
Q 1206 -91 779 398 
Q 353 888 353 1747 
Q 353 2609 779 3096 
Q 1206 3584 1959 3584 
z
" transform="scale(0.015625)"/>
       <path id="DejaVuSans-66" d="M 2375 4863 
L 2375 4384 
L 1825 4384 
Q 1516 4384 1395 4259 
Q 1275 4134 1275 3809 
L 1275 3500 
L 2222 3500 
L 2222 3053 
L 1275 3053 
L 1275 0 
L 697 0 
L 697 3053 
L 147 3053 
L 147 3500 
L 697 3500 
L 697 3744 
Q 697 4328 969 4595 
Q 1241 4863 1831 4863 
L 2375 4863 
z
" transform="scale(0.015625)"/>
       <path id="DejaVuSans-6c" d="M 603 4863 
L 1178 4863 
L 1178 0 
L 603 0 
L 603 4863 
z
" transform="scale(0.015625)"/>
       <path id="DejaVuSans-63" d="M 3122 3366 
L 3122 2828 
Q 2878 2963 2633 3030 
Q 2388 3097 2138 3097 
Q 1578 3097 1268 2742 
Q 959 2388 959 1747 
Q 959 1106 1268 751 
Q 1578 397 2138 397 
Q 2388 397 2633 464 
Q 2878 531 3122 666 
L 3122 134 
Q 2881 22 2623 -34 
Q 2366 -91 2075 -91 
Q 1284 -91 818 406 
Q 353 903 353 1747 
Q 353 2603 823 3093 
Q 1294 3584 2113 3584 
Q 2378 3584 2631 3529 
Q 2884 3475 3122 3366 
z
" transform="scale(0.015625)"/>
       <path id="DejaVuSans-6b" d="M 581 4863 
L 1159 4863 
L 1159 1991 
L 2875 3500 
L 3609 3500 
L 1753 1863 
L 3688 0 
L 2938 0 
L 1159 1709 
L 1159 0 
L 581 0 
L 581 4863 
z
" transform="scale(0.015625)"/>
       <path id="DejaVuSans-73" d="M 2834 3397 
L 2834 2853 
Q 2591 2978 2328 3040 
Q 2066 3103 1784 3103 
Q 1356 3103 1142 2972 
Q 928 2841 928 2578 
Q 928 2378 1081 2264 
Q 1234 2150 1697 2047 
L 1894 2003 
Q 2506 1872 2764 1633 
Q 3022 1394 3022 966 
Q 3022 478 2636 193 
Q 2250 -91 1575 -91 
Q 1294 -91 989 -36 
Q 684 19 347 128 
L 347 722 
Q 666 556 975 473 
Q 1284 391 1588 391 
Q 1994 391 2212 530 
Q 2431 669 2431 922 
Q 2431 1156 2273 1281 
Q 2116 1406 1581 1522 
L 1381 1569 
Q 847 1681 609 1914 
Q 372 2147 372 2553 
Q 372 3047 722 3315 
Q 1072 3584 1716 3584 
Q 2034 3584 2315 3537 
Q 2597 3491 2834 3397 
z
" transform="scale(0.015625)"/>
       <path id="DejaVuSans-2f" d="M 1625 4666 
L 2156 4666 
L 531 -594 
L 0 -594 
L 1625 4666 
z
" transform="scale(0.015625)"/>
       <path id="DejaVuSans-51" d="M 2522 4238 
Q 1834 4238 1429 3725 
Q 1025 3213 1025 2328 
Q 1025 1447 1429 934 
Q 1834 422 2522 422 
Q 3209 422 3611 934 
Q 4013 1447 4013 2328 
Q 4013 3213 3611 3725 
Q 3209 4238 2522 4238 
z
M 3406 84 
L 4238 -825 
L 3475 -825 
L 2784 -78 
Q 2681 -84 2626 -87 
Q 2572 -91 2522 -91 
Q 1538 -91 948 567 
Q 359 1225 359 2328 
Q 359 3434 948 4092 
Q 1538 4750 2522 4750 
Q 3503 4750 4090 4092 
Q 4678 3434 4678 2328 
Q 4678 1516 4351 937 
Q 4025 359 3406 84 
z
" transform="scale(0.015625)"/>
       <path id="DejaVuSans-50" d="M 1259 4147 
L 1259 2394 
L 2053 2394 
Q 2494 2394 2734 2622 
Q 2975 2850 2975 3272 
Q 2975 3691 2734 3919 
Q 2494 4147 2053 4147 
L 1259 4147 
z
M 628 4666 
L 2053 4666 
Q 2838 4666 3239 4311 
Q 3641 3956 3641 3272 
Q 3641 2581 3239 2228 
Q 2838 1875 2053 1875 
L 1259 1875 
L 1259 0 
L 628 0 
L 628 4666 
z
" transform="scale(0.015625)"/>
      </defs>
      <use xlink:href="#DejaVuSans-4e"/>
      <use xlink:href="#DejaVuSans-75" x="74.804688"/>
      <use xlink:href="#DejaVuSans-6d" x="138.183594"/>
      <use xlink:href="#DejaVuSans-62" x="235.595703"/>
      <use xlink:href="#DejaVuSans-65" x="299.072266"/>
      <use xlink:href="#DejaVuSans-72" x="360.595703"/>
      <use xlink:href="#DejaVuSans-20" x="401.708984"/>
      <use xlink:href="#DejaVuSans-6f" x="433.496094"/>
      <use xlink:href="#DejaVuSans-66" x="494.677734"/>
      <use xlink:href="#DejaVuSans-20" x="529.882812"/>
      <use xlink:href="#DejaVuSans-62" x="561.669922"/>
      <use xlink:href="#DejaVuSans-6c" x="625.146484"/>
      <use xlink:href="#DejaVuSans-6f" x="652.929688"/>
      <use xlink:href="#DejaVuSans-63" x="714.111328"/>
      <use xlink:href="#DejaVuSans-6b" x="769.091797"/>
      <use xlink:href="#DejaVuSans-73" x="827.001953"/>
      <use xlink:href="#DejaVuSans-2f" x="879.101562"/>
      <use xlink:href="#DejaVuSans-51" x="912.792969"/>
      <use xlink:href="#DejaVuSans-50" x="991.503906"/>
      <use xlink:href="#DejaVuSans-73" x="1050.056641"/>
     </g>
    </g>
   </g>
   <g id="matplotlib.axis_2">
    <g id="ytick_1">
     <g id="line2d_7">
      <path d="M 40.603125 299.078125 
L 446.033125 299.078125 
" clip-path="url(#pfbe6fcd3a0)" style="fill: none; stroke: #b0b0b0; stroke-width: 0.8; stroke-linecap: square"/>
     </g>
     <g id="line2d_8">
      <defs>
       <path id="m33d411d375" d="M 0 0 
L -3.5 0 
" style="stroke: #000000; stroke-width: 0.8"/>
      </defs>
      <g>
       <use xlink:href="#m33d411d375" x="40.603125" y="299.078125" style="stroke: #000000; stroke-width: 0.8"/>
      </g>
     </g>
     <g id="text_8">
      <!-- 0 -->
      <g transform="translate(27.240625 302.877344) scale(0.1 -0.1)">
       <use xlink:href="#DejaVuSans-30"/>
      </g>
     </g>
    </g>
    <g id="ytick_2">
     <g id="line2d_9">
      <path d="M 40.603125 265.244281 
L 446.033125 265.244281 
" clip-path="url(#pfbe6fcd3a0)" style="fill: none; stroke: #b0b0b0; stroke-width: 0.8; stroke-linecap: square"/>
     </g>
     <g id="line2d_10">
      <g>
       <use xlink:href="#m33d411d375" x="40.603125" y="265.244281" style="stroke: #000000; stroke-width: 0.8"/>
      </g>
     </g>
     <g id="text_9">
      <!-- 10 -->
      <g transform="translate(20.878125 269.043499) scale(0.1 -0.1)">
       <use xlink:href="#DejaVuSans-31"/>
       <use xlink:href="#DejaVuSans-30" x="63.623047"/>
      </g>
     </g>
    </g>
    <g id="ytick_3">
     <g id="line2d_11">
      <path d="M 40.603125 231.410436 
L 446.033125 231.410436 
" clip-path="url(#pfbe6fcd3a0)" style="fill: none; stroke: #b0b0b0; stroke-width: 0.8; stroke-linecap: square"/>
     </g>
     <g id="line2d_12">
      <g>
       <use xlink:href="#m33d411d375" x="40.603125" y="231.410436" style="stroke: #000000; stroke-width: 0.8"/>
      </g>
     </g>
     <g id="text_10">
      <!-- 20 -->
      <g transform="translate(20.878125 235.209655) scale(0.1 -0.1)">
       <use xlink:href="#DejaVuSans-32"/>
       <use xlink:href="#DejaVuSans-30" x="63.623047"/>
      </g>
     </g>
    </g>
    <g id="ytick_4">
     <g id="line2d_13">
      <path d="M 40.603125 197.576592 
L 446.033125 197.576592 
" clip-path="url(#pfbe6fcd3a0)" style="fill: none; stroke: #b0b0b0; stroke-width: 0.8; stroke-linecap: square"/>
     </g>
     <g id="line2d_14">
      <g>
       <use xlink:href="#m33d411d375" x="40.603125" y="197.576592" style="stroke: #000000; stroke-width: 0.8"/>
      </g>
     </g>
     <g id="text_11">
      <!-- 30 -->
      <g transform="translate(20.878125 201.375811) scale(0.1 -0.1)">
       <use xlink:href="#DejaVuSans-33"/>
       <use xlink:href="#DejaVuSans-30" x="63.623047"/>
      </g>
     </g>
    </g>
    <g id="ytick_5">
     <g id="line2d_15">
      <path d="M 40.603125 163.742748 
L 446.033125 163.742748 
" clip-path="url(#pfbe6fcd3a0)" style="fill: none; stroke: #b0b0b0; stroke-width: 0.8; stroke-linecap: square"/>
     </g>
     <g id="line2d_16">
      <g>
       <use xlink:href="#m33d411d375" x="40.603125" y="163.742748" style="stroke: #000000; stroke-width: 0.8"/>
      </g>
     </g>
     <g id="text_12">
      <!-- 40 -->
      <g transform="translate(20.878125 167.541966) scale(0.1 -0.1)">
       <use xlink:href="#DejaVuSans-34"/>
       <use xlink:href="#DejaVuSans-30" x="63.623047"/>
      </g>
     </g>
    </g>
    <g id="ytick_6">
     <g id="line2d_17">
      <path d="M 40.603125 129.908903 
L 446.033125 129.908903 
" clip-path="url(#pfbe6fcd3a0)" style="fill: none; stroke: #b0b0b0; stroke-width: 0.8; stroke-linecap: square"/>
     </g>
     <g id="line2d_18">
      <g>
       <use xlink:href="#m33d411d375" x="40.603125" y="129.908903" style="stroke: #000000; stroke-width: 0.8"/>
      </g>
     </g>
     <g id="text_13">
      <!-- 50 -->
      <g transform="translate(20.878125 133.708122) scale(0.1 -0.1)">
       <use xlink:href="#DejaVuSans-35"/>
       <use xlink:href="#DejaVuSans-30" x="63.623047"/>
      </g>
     </g>
    </g>
    <g id="ytick_7">
     <g id="line2d_19">
      <path d="M 40.603125 96.075059 
L 446.033125 96.075059 
" clip-path="url(#pfbe6fcd3a0)" style="fill: none; stroke: #b0b0b0; stroke-width: 0.8; stroke-linecap: square"/>
     </g>
     <g id="line2d_20">
      <g>
       <use xlink:href="#m33d411d375" x="40.603125" y="96.075059" style="stroke: #000000; stroke-width: 0.8"/>
      </g>
     </g>
     <g id="text_14">
      <!-- 60 -->
      <g transform="translate(20.878125 99.874278) scale(0.1 -0.1)">
       <defs>
        <path id="DejaVuSans-36" d="M 2113 2584 
Q 1688 2584 1439 2293 
Q 1191 2003 1191 1497 
Q 1191 994 1439 701 
Q 1688 409 2113 409 
Q 2538 409 2786 701 
Q 3034 994 3034 1497 
Q 3034 2003 2786 2293 
Q 2538 2584 2113 2584 
z
M 3366 4563 
L 3366 3988 
Q 3128 4100 2886 4159 
Q 2644 4219 2406 4219 
Q 1781 4219 1451 3797 
Q 1122 3375 1075 2522 
Q 1259 2794 1537 2939 
Q 1816 3084 2150 3084 
Q 2853 3084 3261 2657 
Q 3669 2231 3669 1497 
Q 3669 778 3244 343 
Q 2819 -91 2113 -91 
Q 1303 -91 875 529 
Q 447 1150 447 2328 
Q 447 3434 972 4092 
Q 1497 4750 2381 4750 
Q 2619 4750 2861 4703 
Q 3103 4656 3366 4563 
z
" transform="scale(0.015625)"/>
       </defs>
       <use xlink:href="#DejaVuSans-36"/>
       <use xlink:href="#DejaVuSans-30" x="63.623047"/>
      </g>
     </g>
    </g>
    <g id="ytick_8">
     <g id="line2d_21">
      <path d="M 40.603125 62.241215 
L 446.033125 62.241215 
" clip-path="url(#pfbe6fcd3a0)" style="fill: none; stroke: #b0b0b0; stroke-width: 0.8; stroke-linecap: square"/>
     </g>
     <g id="line2d_22">
      <g>
       <use xlink:href="#m33d411d375" x="40.603125" y="62.241215" style="stroke: #000000; stroke-width: 0.8"/>
      </g>
     </g>
     <g id="text_15">
      <!-- 70 -->
      <g transform="translate(20.878125 66.040433) scale(0.1 -0.1)">
       <defs>
        <path id="DejaVuSans-37" d="M 525 4666 
L 3525 4666 
L 3525 4397 
L 1831 0 
L 1172 0 
L 2766 4134 
L 525 4134 
L 525 4666 
z
" transform="scale(0.015625)"/>
       </defs>
       <use xlink:href="#DejaVuSans-37"/>
       <use xlink:href="#DejaVuSans-30" x="63.623047"/>
      </g>
     </g>
    </g>
    <g id="ytick_9">
     <g id="line2d_23">
      <path d="M 40.603125 28.40737 
L 446.033125 28.40737 
" clip-path="url(#pfbe6fcd3a0)" style="fill: none; stroke: #b0b0b0; stroke-width: 0.8; stroke-linecap: square"/>
     </g>
     <g id="line2d_24">
      <g>
       <use xlink:href="#m33d411d375" x="40.603125" y="28.40737" style="stroke: #000000; stroke-width: 0.8"/>
      </g>
     </g>
     <g id="text_16">
      <!-- 80 -->
      <g transform="translate(20.878125 32.206589) scale(0.1 -0.1)">
       <defs>
        <path id="DejaVuSans-38" d="M 2034 2216 
Q 1584 2216 1326 1975 
Q 1069 1734 1069 1313 
Q 1069 891 1326 650 
Q 1584 409 2034 409 
Q 2484 409 2743 651 
Q 3003 894 3003 1313 
Q 3003 1734 2745 1975 
Q 2488 2216 2034 2216 
z
M 1403 2484 
Q 997 2584 770 2862 
Q 544 3141 544 3541 
Q 544 4100 942 4425 
Q 1341 4750 2034 4750 
Q 2731 4750 3128 4425 
Q 3525 4100 3525 3541 
Q 3525 3141 3298 2862 
Q 3072 2584 2669 2484 
Q 3125 2378 3379 2068 
Q 3634 1759 3634 1313 
Q 3634 634 3220 271 
Q 2806 -91 2034 -91 
Q 1263 -91 848 271 
Q 434 634 434 1313 
Q 434 1759 690 2068 
Q 947 2378 1403 2484 
z
M 1172 3481 
Q 1172 3119 1398 2916 
Q 1625 2713 2034 2713 
Q 2441 2713 2670 2916 
Q 2900 3119 2900 3481 
Q 2900 3844 2670 4047 
Q 2441 4250 2034 4250 
Q 1625 4250 1398 4047 
Q 1172 3844 1172 3481 
z
" transform="scale(0.015625)"/>
       </defs>
       <use xlink:href="#DejaVuSans-38"/>
       <use xlink:href="#DejaVuSans-30" x="63.623047"/>
      </g>
     </g>
    </g>
    <g id="text_17">
     <!-- Runtime (ms) -->
     <g transform="translate(14.798438 194.546562) rotate(-90) scale(0.1 -0.1)">
      <defs>
       <path id="DejaVuSans-52" d="M 2841 2188 
Q 3044 2119 3236 1894 
Q 3428 1669 3622 1275 
L 4263 0 
L 3584 0 
L 2988 1197 
Q 2756 1666 2539 1819 
Q 2322 1972 1947 1972 
L 1259 1972 
L 1259 0 
L 628 0 
L 628 4666 
L 2053 4666 
Q 2853 4666 3247 4331 
Q 3641 3997 3641 3322 
Q 3641 2881 3436 2590 
Q 3231 2300 2841 2188 
z
M 1259 4147 
L 1259 2491 
L 2053 2491 
Q 2509 2491 2742 2702 
Q 2975 2913 2975 3322 
Q 2975 3731 2742 3939 
Q 2509 4147 2053 4147 
L 1259 4147 
z
" transform="scale(0.015625)"/>
       <path id="DejaVuSans-6e" d="M 3513 2113 
L 3513 0 
L 2938 0 
L 2938 2094 
Q 2938 2591 2744 2837 
Q 2550 3084 2163 3084 
Q 1697 3084 1428 2787 
Q 1159 2491 1159 1978 
L 1159 0 
L 581 0 
L 581 3500 
L 1159 3500 
L 1159 2956 
Q 1366 3272 1645 3428 
Q 1925 3584 2291 3584 
Q 2894 3584 3203 3211 
Q 3513 2838 3513 2113 
z
" transform="scale(0.015625)"/>
       <path id="DejaVuSans-74" d="M 1172 4494 
L 1172 3500 
L 2356 3500 
L 2356 3053 
L 1172 3053 
L 1172 1153 
Q 1172 725 1289 603 
Q 1406 481 1766 481 
L 2356 481 
L 2356 0 
L 1766 0 
Q 1100 0 847 248 
Q 594 497 594 1153 
L 594 3053 
L 172 3053 
L 172 3500 
L 594 3500 
L 594 4494 
L 1172 4494 
z
" transform="scale(0.015625)"/>
       <path id="DejaVuSans-69" d="M 603 3500 
L 1178 3500 
L 1178 0 
L 603 0 
L 603 3500 
z
M 603 4863 
L 1178 4863 
L 1178 4134 
L 603 4134 
L 603 4863 
z
" transform="scale(0.015625)"/>
       <path id="DejaVuSans-28" d="M 1984 4856 
Q 1566 4138 1362 3434 
Q 1159 2731 1159 2009 
Q 1159 1288 1364 580 
Q 1569 -128 1984 -844 
L 1484 -844 
Q 1016 -109 783 600 
Q 550 1309 550 2009 
Q 550 2706 781 3412 
Q 1013 4119 1484 4856 
L 1984 4856 
z
" transform="scale(0.015625)"/>
       <path id="DejaVuSans-29" d="M 513 4856 
L 1013 4856 
Q 1481 4119 1714 3412 
Q 1947 2706 1947 2009 
Q 1947 1309 1714 600 
Q 1481 -109 1013 -844 
L 513 -844 
Q 928 -128 1133 580 
Q 1338 1288 1338 2009 
Q 1338 2731 1133 3434 
Q 928 4138 513 4856 
z
" transform="scale(0.015625)"/>
      </defs>
      <use xlink:href="#DejaVuSans-52"/>
      <use xlink:href="#DejaVuSans-75" x="64.982422"/>
      <use xlink:href="#DejaVuSans-6e" x="128.361328"/>
      <use xlink:href="#DejaVuSans-74" x="191.740234"/>
      <use xlink:href="#DejaVuSans-69" x="230.949219"/>
      <use xlink:href="#DejaVuSans-6d" x="258.732422"/>
      <use xlink:href="#DejaVuSans-65" x="356.144531"/>
      <use xlink:href="#DejaVuSans-20" x="417.667969"/>
      <use xlink:href="#DejaVuSans-28" x="449.455078"/>
      <use xlink:href="#DejaVuSans-6d" x="488.46875"/>
      <use xlink:href="#DejaVuSans-73" x="585.880859"/>
      <use xlink:href="#DejaVuSans-29" x="637.980469"/>
     </g>
    </g>
   </g>
   <g id="line2d_25">
    <path d="M 59.031761 216.172735 
L 66.258678 216.471231 
L 73.485594 216.519624 
L 80.71251 216.147443 
L 87.939426 215.79404 
L 95.166342 215.765131 
L 102.393259 215.88012 
L 109.620175 214.955074 
L 116.847091 214.93551 
L 124.074007 212.678574 
L 131.300924 212.461171 
L 138.52784 212.442782 
L 145.754756 211.903963 
L 152.981672 212.697609 
L 160.208588 212.812459 
L 167.435505 212.674406 
L 174.662421 212.901455 
L 181.889337 207.814389 
L 189.116253 207.948644 
L 196.34317 207.700477 
L 203.570086 207.286555 
L 210.797002 207.330559 
L 218.023918 207.240278 
L 225.250834 207.159903 
L 232.477751 206.848484 
L 239.704667 127.987594 
L 246.931583 126.979913 
L 254.158499 124.675985 
L 261.385416 124.20468 
L 268.612332 121.72722 
L 275.839248 121.290779 
L 283.066164 121.037904 
L 290.29308 120.825661 
L 297.519997 120.439077 
L 304.746913 120.231098 
L 311.973829 120.040714 
L 319.200745 119.741013 
L 326.427662 119.466326 
L 333.654578 117.311068 
L 340.881494 119.207445 
L 348.10841 119.025242 
L 355.335326 118.699217 
L 362.562243 110.418319 
L 369.789159 118.475648 
L 377.016075 118.272001 
L 384.242991 117.903597 
L 391.469908 117.723635 
L 398.696824 117.569455 
L 405.92374 117.317265 
L 413.150656 116.709095 
L 420.377572 37.379339 
L 427.604489 34.900902 
" clip-path="url(#pfbe6fcd3a0)" style="fill: none; stroke: #1f77b4; stroke-width: 1.5; stroke-linecap: square"/>
    <defs>
     <path id="me7e7826def" d="M 0 1.5 
C 0.397805 1.5 0.77937 1.341951 1.06066 1.06066 
C 1.341951 0.77937 1.5 0.397805 1.5 0 
C 1.5 -0.397805 1.341951 -0.77937 1.06066 -1.06066 
C 0.77937 -1.341951 0.397805 -1.5 0 -1.5 
C -0.397805 -1.5 -0.77937 -1.341951 -1.06066 -1.06066 
C -1.341951 -0.77937 -1.5 -0.397805 -1.5 0 
C -1.5 0.397805 -1.341951 0.77937 -1.06066 1.06066 
C -0.77937 1.341951 -0.397805 1.5 0 1.5 
z
" style="stroke: #1f77b4"/>
    </defs>
    <g clip-path="url(#pfbe6fcd3a0)">
     <use xlink:href="#me7e7826def" x="59.031761" y="216.172735" style="fill: #1f77b4; stroke: #1f77b4"/>
     <use xlink:href="#me7e7826def" x="66.258678" y="216.471231" style="fill: #1f77b4; stroke: #1f77b4"/>
     <use xlink:href="#me7e7826def" x="73.485594" y="216.519624" style="fill: #1f77b4; stroke: #1f77b4"/>
     <use xlink:href="#me7e7826def" x="80.71251" y="216.147443" style="fill: #1f77b4; stroke: #1f77b4"/>
     <use xlink:href="#me7e7826def" x="87.939426" y="215.79404" style="fill: #1f77b4; stroke: #1f77b4"/>
     <use xlink:href="#me7e7826def" x="95.166342" y="215.765131" style="fill: #1f77b4; stroke: #1f77b4"/>
     <use xlink:href="#me7e7826def" x="102.393259" y="215.88012" style="fill: #1f77b4; stroke: #1f77b4"/>
     <use xlink:href="#me7e7826def" x="109.620175" y="214.955074" style="fill: #1f77b4; stroke: #1f77b4"/>
     <use xlink:href="#me7e7826def" x="116.847091" y="214.93551" style="fill: #1f77b4; stroke: #1f77b4"/>
     <use xlink:href="#me7e7826def" x="124.074007" y="212.678574" style="fill: #1f77b4; stroke: #1f77b4"/>
     <use xlink:href="#me7e7826def" x="131.300924" y="212.461171" style="fill: #1f77b4; stroke: #1f77b4"/>
     <use xlink:href="#me7e7826def" x="138.52784" y="212.442782" style="fill: #1f77b4; stroke: #1f77b4"/>
     <use xlink:href="#me7e7826def" x="145.754756" y="211.903963" style="fill: #1f77b4; stroke: #1f77b4"/>
     <use xlink:href="#me7e7826def" x="152.981672" y="212.697609" style="fill: #1f77b4; stroke: #1f77b4"/>
     <use xlink:href="#me7e7826def" x="160.208588" y="212.812459" style="fill: #1f77b4; stroke: #1f77b4"/>
     <use xlink:href="#me7e7826def" x="167.435505" y="212.674406" style="fill: #1f77b4; stroke: #1f77b4"/>
     <use xlink:href="#me7e7826def" x="174.662421" y="212.901455" style="fill: #1f77b4; stroke: #1f77b4"/>
     <use xlink:href="#me7e7826def" x="181.889337" y="207.814389" style="fill: #1f77b4; stroke: #1f77b4"/>
     <use xlink:href="#me7e7826def" x="189.116253" y="207.948644" style="fill: #1f77b4; stroke: #1f77b4"/>
     <use xlink:href="#me7e7826def" x="196.34317" y="207.700477" style="fill: #1f77b4; stroke: #1f77b4"/>
     <use xlink:href="#me7e7826def" x="203.570086" y="207.286555" style="fill: #1f77b4; stroke: #1f77b4"/>
     <use xlink:href="#me7e7826def" x="210.797002" y="207.330559" style="fill: #1f77b4; stroke: #1f77b4"/>
     <use xlink:href="#me7e7826def" x="218.023918" y="207.240278" style="fill: #1f77b4; stroke: #1f77b4"/>
     <use xlink:href="#me7e7826def" x="225.250834" y="207.159903" style="fill: #1f77b4; stroke: #1f77b4"/>
     <use xlink:href="#me7e7826def" x="232.477751" y="206.848484" style="fill: #1f77b4; stroke: #1f77b4"/>
     <use xlink:href="#me7e7826def" x="239.704667" y="127.987594" style="fill: #1f77b4; stroke: #1f77b4"/>
     <use xlink:href="#me7e7826def" x="246.931583" y="126.979913" style="fill: #1f77b4; stroke: #1f77b4"/>
     <use xlink:href="#me7e7826def" x="254.158499" y="124.675985" style="fill: #1f77b4; stroke: #1f77b4"/>
     <use xlink:href="#me7e7826def" x="261.385416" y="124.20468" style="fill: #1f77b4; stroke: #1f77b4"/>
     <use xlink:href="#me7e7826def" x="268.612332" y="121.72722" style="fill: #1f77b4; stroke: #1f77b4"/>
     <use xlink:href="#me7e7826def" x="275.839248" y="121.290779" style="fill: #1f77b4; stroke: #1f77b4"/>
     <use xlink:href="#me7e7826def" x="283.066164" y="121.037904" style="fill: #1f77b4; stroke: #1f77b4"/>
     <use xlink:href="#me7e7826def" x="290.29308" y="120.825661" style="fill: #1f77b4; stroke: #1f77b4"/>
     <use xlink:href="#me7e7826def" x="297.519997" y="120.439077" style="fill: #1f77b4; stroke: #1f77b4"/>
     <use xlink:href="#me7e7826def" x="304.746913" y="120.231098" style="fill: #1f77b4; stroke: #1f77b4"/>
     <use xlink:href="#me7e7826def" x="311.973829" y="120.040714" style="fill: #1f77b4; stroke: #1f77b4"/>
     <use xlink:href="#me7e7826def" x="319.200745" y="119.741013" style="fill: #1f77b4; stroke: #1f77b4"/>
     <use xlink:href="#me7e7826def" x="326.427662" y="119.466326" style="fill: #1f77b4; stroke: #1f77b4"/>
     <use xlink:href="#me7e7826def" x="333.654578" y="117.311068" style="fill: #1f77b4; stroke: #1f77b4"/>
     <use xlink:href="#me7e7826def" x="340.881494" y="119.207445" style="fill: #1f77b4; stroke: #1f77b4"/>
     <use xlink:href="#me7e7826def" x="348.10841" y="119.025242" style="fill: #1f77b4; stroke: #1f77b4"/>
     <use xlink:href="#me7e7826def" x="355.335326" y="118.699217" style="fill: #1f77b4; stroke: #1f77b4"/>
     <use xlink:href="#me7e7826def" x="362.562243" y="110.418319" style="fill: #1f77b4; stroke: #1f77b4"/>
     <use xlink:href="#me7e7826def" x="369.789159" y="118.475648" style="fill: #1f77b4; stroke: #1f77b4"/>
     <use xlink:href="#me7e7826def" x="377.016075" y="118.272001" style="fill: #1f77b4; stroke: #1f77b4"/>
     <use xlink:href="#me7e7826def" x="384.242991" y="117.903597" style="fill: #1f77b4; stroke: #1f77b4"/>
     <use xlink:href="#me7e7826def" x="391.469908" y="117.723635" style="fill: #1f77b4; stroke: #1f77b4"/>
     <use xlink:href="#me7e7826def" x="398.696824" y="117.569455" style="fill: #1f77b4; stroke: #1f77b4"/>
     <use xlink:href="#me7e7826def" x="405.92374" y="117.317265" style="fill: #1f77b4; stroke: #1f77b4"/>
     <use xlink:href="#me7e7826def" x="413.150656" y="116.709095" style="fill: #1f77b4; stroke: #1f77b4"/>
     <use xlink:href="#me7e7826def" x="420.377572" y="37.379339" style="fill: #1f77b4; stroke: #1f77b4"/>
     <use xlink:href="#me7e7826def" x="427.604489" y="34.900902" style="fill: #1f77b4; stroke: #1f77b4"/>
    </g>
   </g>
   <g id="line2d_26">
    <path d="M 59.031761 217.821263 
L 66.258678 217.776984 
L 73.485594 217.160068 
L 80.71251 217.258366 
L 87.939426 217.215427 
L 95.166342 217.033188 
L 102.393259 216.984643 
L 109.620175 216.849814 
L 116.847091 216.961419 
L 124.074007 214.4255 
L 131.300924 214.009137 
L 138.52784 213.516856 
L 145.754756 213.662855 
L 152.981672 213.571809 
L 160.208588 213.349646 
L 167.435505 214.166531 
L 174.662421 214.043742 
L 181.889337 205.640752 
L 189.116253 205.440329 
L 196.34317 205.444841 
L 203.570086 205.231458 
L 210.797002 204.413099 
L 218.023918 204.634019 
L 225.250834 204.678978 
L 232.477751 204.580583 
L 239.704667 130.330585 
L 246.931583 129.544437 
L 254.158499 129.127623 
L 261.385416 129.036071 
L 268.612332 128.577406 
L 275.839248 128.248109 
L 283.066164 128.053545 
L 290.29308 127.581063 
L 297.519997 124.790006 
L 304.746913 116.259172 
L 311.973829 115.928663 
L 319.200745 115.403256 
L 326.427662 115.318095 
L 333.654578 115.008701 
L 340.881494 114.753642 
L 348.10841 114.397706 
L 355.335326 114.399634 
L 362.562243 114.020754 
L 369.789159 113.994093 
L 377.016075 113.810472 
L 384.242991 113.325444 
L 391.469908 113.076845 
L 398.696824 112.784529 
L 405.92374 112.93237 
L 413.150656 112.38205 
L 420.377572 38.511783 
L 427.604489 36.728752 
" clip-path="url(#pfbe6fcd3a0)" style="fill: none; stroke: #ff7f0e; stroke-width: 1.5; stroke-linecap: square"/>
    <defs>
     <path id="maf3cd0de8c" d="M 0 1.5 
C 0.397805 1.5 0.77937 1.341951 1.06066 1.06066 
C 1.341951 0.77937 1.5 0.397805 1.5 0 
C 1.5 -0.397805 1.341951 -0.77937 1.06066 -1.06066 
C 0.77937 -1.341951 0.397805 -1.5 0 -1.5 
C -0.397805 -1.5 -0.77937 -1.341951 -1.06066 -1.06066 
C -1.341951 -0.77937 -1.5 -0.397805 -1.5 0 
C -1.5 0.397805 -1.341951 0.77937 -1.06066 1.06066 
C -0.77937 1.341951 -0.397805 1.5 0 1.5 
z
" style="stroke: #ff7f0e"/>
    </defs>
    <g clip-path="url(#pfbe6fcd3a0)">
     <use xlink:href="#maf3cd0de8c" x="59.031761" y="217.821263" style="fill: #ff7f0e; stroke: #ff7f0e"/>
     <use xlink:href="#maf3cd0de8c" x="66.258678" y="217.776984" style="fill: #ff7f0e; stroke: #ff7f0e"/>
     <use xlink:href="#maf3cd0de8c" x="73.485594" y="217.160068" style="fill: #ff7f0e; stroke: #ff7f0e"/>
     <use xlink:href="#maf3cd0de8c" x="80.71251" y="217.258366" style="fill: #ff7f0e; stroke: #ff7f0e"/>
     <use xlink:href="#maf3cd0de8c" x="87.939426" y="217.215427" style="fill: #ff7f0e; stroke: #ff7f0e"/>
     <use xlink:href="#maf3cd0de8c" x="95.166342" y="217.033188" style="fill: #ff7f0e; stroke: #ff7f0e"/>
     <use xlink:href="#maf3cd0de8c" x="102.393259" y="216.984643" style="fill: #ff7f0e; stroke: #ff7f0e"/>
     <use xlink:href="#maf3cd0de8c" x="109.620175" y="216.849814" style="fill: #ff7f0e; stroke: #ff7f0e"/>
     <use xlink:href="#maf3cd0de8c" x="116.847091" y="216.961419" style="fill: #ff7f0e; stroke: #ff7f0e"/>
     <use xlink:href="#maf3cd0de8c" x="124.074007" y="214.4255" style="fill: #ff7f0e; stroke: #ff7f0e"/>
     <use xlink:href="#maf3cd0de8c" x="131.300924" y="214.009137" style="fill: #ff7f0e; stroke: #ff7f0e"/>
     <use xlink:href="#maf3cd0de8c" x="138.52784" y="213.516856" style="fill: #ff7f0e; stroke: #ff7f0e"/>
     <use xlink:href="#maf3cd0de8c" x="145.754756" y="213.662855" style="fill: #ff7f0e; stroke: #ff7f0e"/>
     <use xlink:href="#maf3cd0de8c" x="152.981672" y="213.571809" style="fill: #ff7f0e; stroke: #ff7f0e"/>
     <use xlink:href="#maf3cd0de8c" x="160.208588" y="213.349646" style="fill: #ff7f0e; stroke: #ff7f0e"/>
     <use xlink:href="#maf3cd0de8c" x="167.435505" y="214.166531" style="fill: #ff7f0e; stroke: #ff7f0e"/>
     <use xlink:href="#maf3cd0de8c" x="174.662421" y="214.043742" style="fill: #ff7f0e; stroke: #ff7f0e"/>
     <use xlink:href="#maf3cd0de8c" x="181.889337" y="205.640752" style="fill: #ff7f0e; stroke: #ff7f0e"/>
     <use xlink:href="#maf3cd0de8c" x="189.116253" y="205.440329" style="fill: #ff7f0e; stroke: #ff7f0e"/>
     <use xlink:href="#maf3cd0de8c" x="196.34317" y="205.444841" style="fill: #ff7f0e; stroke: #ff7f0e"/>
     <use xlink:href="#maf3cd0de8c" x="203.570086" y="205.231458" style="fill: #ff7f0e; stroke: #ff7f0e"/>
     <use xlink:href="#maf3cd0de8c" x="210.797002" y="204.413099" style="fill: #ff7f0e; stroke: #ff7f0e"/>
     <use xlink:href="#maf3cd0de8c" x="218.023918" y="204.634019" style="fill: #ff7f0e; stroke: #ff7f0e"/>
     <use xlink:href="#maf3cd0de8c" x="225.250834" y="204.678978" style="fill: #ff7f0e; stroke: #ff7f0e"/>
     <use xlink:href="#maf3cd0de8c" x="232.477751" y="204.580583" style="fill: #ff7f0e; stroke: #ff7f0e"/>
     <use xlink:href="#maf3cd0de8c" x="239.704667" y="130.330585" style="fill: #ff7f0e; stroke: #ff7f0e"/>
     <use xlink:href="#maf3cd0de8c" x="246.931583" y="129.544437" style="fill: #ff7f0e; stroke: #ff7f0e"/>
     <use xlink:href="#maf3cd0de8c" x="254.158499" y="129.127623" style="fill: #ff7f0e; stroke: #ff7f0e"/>
     <use xlink:href="#maf3cd0de8c" x="261.385416" y="129.036071" style="fill: #ff7f0e; stroke: #ff7f0e"/>
     <use xlink:href="#maf3cd0de8c" x="268.612332" y="128.577406" style="fill: #ff7f0e; stroke: #ff7f0e"/>
     <use xlink:href="#maf3cd0de8c" x="275.839248" y="128.248109" style="fill: #ff7f0e; stroke: #ff7f0e"/>
     <use xlink:href="#maf3cd0de8c" x="283.066164" y="128.053545" style="fill: #ff7f0e; stroke: #ff7f0e"/>
     <use xlink:href="#maf3cd0de8c" x="290.29308" y="127.581063" style="fill: #ff7f0e; stroke: #ff7f0e"/>
     <use xlink:href="#maf3cd0de8c" x="297.519997" y="124.790006" style="fill: #ff7f0e; stroke: #ff7f0e"/>
     <use xlink:href="#maf3cd0de8c" x="304.746913" y="116.259172" style="fill: #ff7f0e; stroke: #ff7f0e"/>
     <use xlink:href="#maf3cd0de8c" x="311.973829" y="115.928663" style="fill: #ff7f0e; stroke: #ff7f0e"/>
     <use xlink:href="#maf3cd0de8c" x="319.200745" y="115.403256" style="fill: #ff7f0e; stroke: #ff7f0e"/>
     <use xlink:href="#maf3cd0de8c" x="326.427662" y="115.318095" style="fill: #ff7f0e; stroke: #ff7f0e"/>
     <use xlink:href="#maf3cd0de8c" x="333.654578" y="115.008701" style="fill: #ff7f0e; stroke: #ff7f0e"/>
     <use xlink:href="#maf3cd0de8c" x="340.881494" y="114.753642" style="fill: #ff7f0e; stroke: #ff7f0e"/>
     <use xlink:href="#maf3cd0de8c" x="348.10841" y="114.397706" style="fill: #ff7f0e; stroke: #ff7f0e"/>
     <use xlink:href="#maf3cd0de8c" x="355.335326" y="114.399634" style="fill: #ff7f0e; stroke: #ff7f0e"/>
     <use xlink:href="#maf3cd0de8c" x="362.562243" y="114.020754" style="fill: #ff7f0e; stroke: #ff7f0e"/>
     <use xlink:href="#maf3cd0de8c" x="369.789159" y="113.994093" style="fill: #ff7f0e; stroke: #ff7f0e"/>
     <use xlink:href="#maf3cd0de8c" x="377.016075" y="113.810472" style="fill: #ff7f0e; stroke: #ff7f0e"/>
     <use xlink:href="#maf3cd0de8c" x="384.242991" y="113.325444" style="fill: #ff7f0e; stroke: #ff7f0e"/>
     <use xlink:href="#maf3cd0de8c" x="391.469908" y="113.076845" style="fill: #ff7f0e; stroke: #ff7f0e"/>
     <use xlink:href="#maf3cd0de8c" x="398.696824" y="112.784529" style="fill: #ff7f0e; stroke: #ff7f0e"/>
     <use xlink:href="#maf3cd0de8c" x="405.92374" y="112.93237" style="fill: #ff7f0e; stroke: #ff7f0e"/>
     <use xlink:href="#maf3cd0de8c" x="413.150656" y="112.38205" style="fill: #ff7f0e; stroke: #ff7f0e"/>
     <use xlink:href="#maf3cd0de8c" x="420.377572" y="38.511783" style="fill: #ff7f0e; stroke: #ff7f0e"/>
     <use xlink:href="#maf3cd0de8c" x="427.604489" y="36.728752" style="fill: #ff7f0e; stroke: #ff7f0e"/>
    </g>
   </g>
   <g id="line2d_27">
    <path d="M 116.847091 299.078125 
L 116.847091 22.318125 
" clip-path="url(#pfbe6fcd3a0)" style="fill: none; stroke-dasharray: 5.55,2.4; stroke-dashoffset: 0; stroke: #000000; stroke-opacity: 0.3; stroke-width: 1.5"/>
   </g>
   <g id="line2d_28">
    <path d="M 176.107804 299.078125 
L 176.107804 22.318125 
" clip-path="url(#pfbe6fcd3a0)" style="fill: none; stroke-dasharray: 5.55,2.4; stroke-dashoffset: 0; stroke: #000000; stroke-opacity: 0.3; stroke-width: 1.5"/>
   </g>
   <g id="line2d_29">
    <path d="M 235.368517 299.078125 
L 235.368517 22.318125 
" clip-path="url(#pfbe6fcd3a0)" style="fill: none; stroke-dasharray: 5.55,2.4; stroke-dashoffset: 0; stroke: #000000; stroke-opacity: 0.3; stroke-width: 1.5"/>
   </g>
   <g id="line2d_30">
    <path d="M 294.62923 299.078125 
L 294.62923 22.318125 
" clip-path="url(#pfbe6fcd3a0)" style="fill: none; stroke-dasharray: 5.55,2.4; stroke-dashoffset: 0; stroke: #000000; stroke-opacity: 0.3; stroke-width: 1.5"/>
   </g>
   <g id="line2d_31">
    <path d="M 353.889943 299.078125 
L 353.889943 22.318125 
" clip-path="url(#pfbe6fcd3a0)" style="fill: none; stroke-dasharray: 5.55,2.4; stroke-dashoffset: 0; stroke: #000000; stroke-opacity: 0.3; stroke-width: 1.5"/>
   </g>
   <g id="line2d_32">
    <path d="M 413.150656 299.078125 
L 413.150656 22.318125 
" clip-path="url(#pfbe6fcd3a0)" style="fill: none; stroke-dasharray: 5.55,2.4; stroke-dashoffset: 0; stroke: #000000; stroke-opacity: 0.3; stroke-width: 1.5"/>
   </g>
   <g id="patch_3">
    <path d="M 40.603125 299.078125 
L 40.603125 22.318125 
" style="fill: none; stroke: #000000; stroke-width: 0.8; stroke-linejoin: miter; stroke-linecap: square"/>
   </g>
   <g id="patch_4">
    <path d="M 446.033125 299.078125 
L 446.033125 22.318125 
" style="fill: none; stroke: #000000; stroke-width: 0.8; stroke-linejoin: miter; stroke-linecap: square"/>
   </g>
   <g id="patch_5">
    <path d="M 40.603125 299.078125 
L 446.033125 299.078125 
" style="fill: none; stroke: #000000; stroke-width: 0.8; stroke-linejoin: miter; stroke-linecap: square"/>
   </g>
   <g id="patch_6">
    <path d="M 40.603125 22.318125 
L 446.033125 22.318125 
" style="fill: none; stroke: #000000; stroke-width: 0.8; stroke-linejoin: miter; stroke-linecap: square"/>
   </g>
   <g id="text_18">
    <!-- Runtime depending on the number of QPs -->
    <g transform="translate(117.043437 16.318125) scale(0.12 -0.12)">
     <defs>
      <path id="DejaVuSans-64" d="M 2906 2969 
L 2906 4863 
L 3481 4863 
L 3481 0 
L 2906 0 
L 2906 525 
Q 2725 213 2448 61 
Q 2172 -91 1784 -91 
Q 1150 -91 751 415 
Q 353 922 353 1747 
Q 353 2572 751 3078 
Q 1150 3584 1784 3584 
Q 2172 3584 2448 3432 
Q 2725 3281 2906 2969 
z
M 947 1747 
Q 947 1113 1208 752 
Q 1469 391 1925 391 
Q 2381 391 2643 752 
Q 2906 1113 2906 1747 
Q 2906 2381 2643 2742 
Q 2381 3103 1925 3103 
Q 1469 3103 1208 2742 
Q 947 2381 947 1747 
z
" transform="scale(0.015625)"/>
      <path id="DejaVuSans-70" d="M 1159 525 
L 1159 -1331 
L 581 -1331 
L 581 3500 
L 1159 3500 
L 1159 2969 
Q 1341 3281 1617 3432 
Q 1894 3584 2278 3584 
Q 2916 3584 3314 3078 
Q 3713 2572 3713 1747 
Q 3713 922 3314 415 
Q 2916 -91 2278 -91 
Q 1894 -91 1617 61 
Q 1341 213 1159 525 
z
M 3116 1747 
Q 3116 2381 2855 2742 
Q 2594 3103 2138 3103 
Q 1681 3103 1420 2742 
Q 1159 2381 1159 1747 
Q 1159 1113 1420 752 
Q 1681 391 2138 391 
Q 2594 391 2855 752 
Q 3116 1113 3116 1747 
z
" transform="scale(0.015625)"/>
      <path id="DejaVuSans-67" d="M 2906 1791 
Q 2906 2416 2648 2759 
Q 2391 3103 1925 3103 
Q 1463 3103 1205 2759 
Q 947 2416 947 1791 
Q 947 1169 1205 825 
Q 1463 481 1925 481 
Q 2391 481 2648 825 
Q 2906 1169 2906 1791 
z
M 3481 434 
Q 3481 -459 3084 -895 
Q 2688 -1331 1869 -1331 
Q 1566 -1331 1297 -1286 
Q 1028 -1241 775 -1147 
L 775 -588 
Q 1028 -725 1275 -790 
Q 1522 -856 1778 -856 
Q 2344 -856 2625 -561 
Q 2906 -266 2906 331 
L 2906 616 
Q 2728 306 2450 153 
Q 2172 0 1784 0 
Q 1141 0 747 490 
Q 353 981 353 1791 
Q 353 2603 747 3093 
Q 1141 3584 1784 3584 
Q 2172 3584 2450 3431 
Q 2728 3278 2906 2969 
L 2906 3500 
L 3481 3500 
L 3481 434 
z
" transform="scale(0.015625)"/>
      <path id="DejaVuSans-68" d="M 3513 2113 
L 3513 0 
L 2938 0 
L 2938 2094 
Q 2938 2591 2744 2837 
Q 2550 3084 2163 3084 
Q 1697 3084 1428 2787 
Q 1159 2491 1159 1978 
L 1159 0 
L 581 0 
L 581 4863 
L 1159 4863 
L 1159 2956 
Q 1366 3272 1645 3428 
Q 1925 3584 2291 3584 
Q 2894 3584 3203 3211 
Q 3513 2838 3513 2113 
z
" transform="scale(0.015625)"/>
     </defs>
     <use xlink:href="#DejaVuSans-52"/>
     <use xlink:href="#DejaVuSans-75" x="64.982422"/>
     <use xlink:href="#DejaVuSans-6e" x="128.361328"/>
     <use xlink:href="#DejaVuSans-74" x="191.740234"/>
     <use xlink:href="#DejaVuSans-69" x="230.949219"/>
     <use xlink:href="#DejaVuSans-6d" x="258.732422"/>
     <use xlink:href="#DejaVuSans-65" x="356.144531"/>
     <use xlink:href="#DejaVuSans-20" x="417.667969"/>
     <use xlink:href="#DejaVuSans-64" x="449.455078"/>
     <use xlink:href="#DejaVuSans-65" x="512.931641"/>
     <use xlink:href="#DejaVuSans-70" x="574.455078"/>
     <use xlink:href="#DejaVuSans-65" x="637.931641"/>
     <use xlink:href="#DejaVuSans-6e" x="699.455078"/>
     <use xlink:href="#DejaVuSans-64" x="762.833984"/>
     <use xlink:href="#DejaVuSans-69" x="826.310547"/>
     <use xlink:href="#DejaVuSans-6e" x="854.09375"/>
     <use xlink:href="#DejaVuSans-67" x="917.472656"/>
     <use xlink:href="#DejaVuSans-20" x="980.949219"/>
     <use xlink:href="#DejaVuSans-6f" x="1012.736328"/>
     <use xlink:href="#DejaVuSans-6e" x="1073.917969"/>
     <use xlink:href="#DejaVuSans-20" x="1137.296875"/>
     <use xlink:href="#DejaVuSans-74" x="1169.083984"/>
     <use xlink:href="#DejaVuSans-68" x="1208.292969"/>
     <use xlink:href="#DejaVuSans-65" x="1271.671875"/>
     <use xlink:href="#DejaVuSans-20" x="1333.195312"/>
     <use xlink:href="#DejaVuSans-6e" x="1364.982422"/>
     <use xlink:href="#DejaVuSans-75" x="1428.361328"/>
     <use xlink:href="#DejaVuSans-6d" x="1491.740234"/>
     <use xlink:href="#DejaVuSans-62" x="1589.152344"/>
     <use xlink:href="#DejaVuSans-65" x="1652.628906"/>
     <use xlink:href="#DejaVuSans-72" x="1714.152344"/>
     <use xlink:href="#DejaVuSans-20" x="1755.265625"/>
     <use xlink:href="#DejaVuSans-6f" x="1787.052734"/>
     <use xlink:href="#DejaVuSans-66" x="1848.234375"/>
     <use xlink:href="#DejaVuSans-20" x="1883.439453"/>
     <use xlink:href="#DejaVuSans-51" x="1915.226562"/>
     <use xlink:href="#DejaVuSans-50" x="1993.9375"/>
     <use xlink:href="#DejaVuSans-73" x="2052.490234"/>
    </g>
   </g>
   <g id="legend_1">
    <g id="patch_7">
     <path d="M 47.603125 59.674375 
L 133.489063 59.674375 
Q 135.489063 59.674375 135.489063 57.674375 
L 135.489063 29.318125 
Q 135.489063 27.318125 133.489063 27.318125 
L 47.603125 27.318125 
Q 45.603125 27.318125 45.603125 29.318125 
L 45.603125 57.674375 
Q 45.603125 59.674375 47.603125 59.674375 
z
" style="fill: #ffffff; opacity: 0.8; stroke: #cccccc; stroke-linejoin: miter"/>
    </g>
    <g id="line2d_33">
     <path d="M 49.603125 35.416562 
L 59.603125 35.416562 
L 69.603125 35.416562 
" style="fill: none; stroke: #1f77b4; stroke-width: 1.5; stroke-linecap: square"/>
     <g>
      <use xlink:href="#me7e7826def" x="59.603125" y="35.416562" style="fill: #1f77b4; stroke: #1f77b4"/>
     </g>
    </g>
    <g id="text_19">
     <!-- 32 threads -->
     <g transform="translate(77.603125 38.916562) scale(0.1 -0.1)">
      <defs>
       <path id="DejaVuSans-61" d="M 2194 1759 
Q 1497 1759 1228 1600 
Q 959 1441 959 1056 
Q 959 750 1161 570 
Q 1363 391 1709 391 
Q 2188 391 2477 730 
Q 2766 1069 2766 1631 
L 2766 1759 
L 2194 1759 
z
M 3341 1997 
L 3341 0 
L 2766 0 
L 2766 531 
Q 2569 213 2275 61 
Q 1981 -91 1556 -91 
Q 1019 -91 701 211 
Q 384 513 384 1019 
Q 384 1609 779 1909 
Q 1175 2209 1959 2209 
L 2766 2209 
L 2766 2266 
Q 2766 2663 2505 2880 
Q 2244 3097 1772 3097 
Q 1472 3097 1187 3025 
Q 903 2953 641 2809 
L 641 3341 
Q 956 3463 1253 3523 
Q 1550 3584 1831 3584 
Q 2591 3584 2966 3190 
Q 3341 2797 3341 1997 
z
" transform="scale(0.015625)"/>
      </defs>
      <use xlink:href="#DejaVuSans-33"/>
      <use xlink:href="#DejaVuSans-32" x="63.623047"/>
      <use xlink:href="#DejaVuSans-20" x="127.246094"/>
      <use xlink:href="#DejaVuSans-74" x="159.033203"/>
      <use xlink:href="#DejaVuSans-68" x="198.242188"/>
      <use xlink:href="#DejaVuSans-72" x="261.621094"/>
      <use xlink:href="#DejaVuSans-65" x="300.484375"/>
      <use xlink:href="#DejaVuSans-61" x="362.007812"/>
      <use xlink:href="#DejaVuSans-64" x="423.287109"/>
      <use xlink:href="#DejaVuSans-73" x="486.763672"/>
     </g>
    </g>
    <g id="line2d_34">
     <path d="M 49.603125 50.094687 
L 59.603125 50.094687 
L 69.603125 50.094687 
" style="fill: none; stroke: #ff7f0e; stroke-width: 1.5; stroke-linecap: square"/>
     <g>
      <use xlink:href="#maf3cd0de8c" x="59.603125" y="50.094687" style="fill: #ff7f0e; stroke: #ff7f0e"/>
     </g>
    </g>
    <g id="text_20">
     <!-- 64 threads -->
     <g transform="translate(77.603125 53.594687) scale(0.1 -0.1)">
      <use xlink:href="#DejaVuSans-36"/>
      <use xlink:href="#DejaVuSans-34" x="63.623047"/>
      <use xlink:href="#DejaVuSans-20" x="127.246094"/>
      <use xlink:href="#DejaVuSans-74" x="159.033203"/>
      <use xlink:href="#DejaVuSans-68" x="198.242188"/>
      <use xlink:href="#DejaVuSans-72" x="261.621094"/>
      <use xlink:href="#DejaVuSans-65" x="300.484375"/>
      <use xlink:href="#DejaVuSans-61" x="362.007812"/>
      <use xlink:href="#DejaVuSans-64" x="423.287109"/>
      <use xlink:href="#DejaVuSans-73" x="486.763672"/>
     </g>
    </g>
   </g>
  </g>
 </g>
 <defs>
  <clipPath id="pfbe6fcd3a0">
   <rect x="40.603125" y="22.318125" width="405.43" height="276.76"/>
  </clipPath>
 </defs>
</svg>
